<svg width="198" height="233" viewBox="0 0 198 233" fill="none" xmlns="http://www.w3.org/2000/svg">
<path d="M135.411 55.2866L134.463 55.3713L133.854 54.6564L133.644 55.5648L132.76 55.9081L133.577 56.384L133.64 57.3131L134.356 56.7002L135.278 56.9295L134.903 56.0733L135.411 55.2866Z" fill="url(#paint0_linear_4_7661)"/>
<path d="M141.327 56.4558L141.659 54.5641L139.922 55.4573L138.185 54.5641L138.516 56.4558L137.112 57.7945L139.053 58.0705L139.922 59.7916L140.79 58.0705L142.733 57.7945L141.327 56.4558Z" fill="url(#paint1_linear_4_7661)"/>
<path d="M146.27 55.4964L146.06 54.5891L145.451 55.303L144.503 55.2182L145.011 56.006L144.635 56.8622L145.558 56.633L146.273 57.2458L146.337 56.3168L147.153 55.8409L146.27 55.4964Z" fill="url(#paint2_linear_4_7661)"/>
<path d="M146.27 55.4964L146.06 54.5891L145.451 55.303L144.503 55.2182L145.011 56.006L144.635 56.8622L145.558 56.633L146.273 57.2458L146.337 56.3168L147.153 55.8409L146.27 55.4964Z" fill="url(#paint3_linear_4_7661)"/>
<path d="M141.327 56.4558L141.659 54.5641L139.922 55.4573L138.185 54.5641L138.516 56.4558L137.112 57.7945L139.053 58.0705L139.922 59.7916L140.79 58.0705L142.733 57.7945L141.327 56.4558Z" fill="url(#paint4_linear_4_7661)"/>
<path d="M135.411 55.2866L134.463 55.3713L133.854 54.6564L133.644 55.5648L132.76 55.9081L133.577 56.384L133.64 57.3131L134.356 56.7002L135.278 56.9295L134.903 56.0733L135.411 55.2866Z" fill="url(#paint5_linear_4_7661)"/>
<path d="M135.411 55.2866L134.463 55.3713L133.854 54.6564L133.644 55.5648L132.76 55.9081L133.577 56.384L133.64 57.3131L134.356 56.7002L135.278 56.9295L134.903 56.0733L135.411 55.2866Z" fill="url(#paint6_linear_4_7661)"/>
<path d="M141.327 56.4558L141.659 54.5641L139.922 55.4573L138.185 54.5641L138.516 56.4558L137.112 57.7945L139.053 58.0705L139.922 59.7916L140.79 58.0705L142.733 57.7945L141.327 56.4558Z" fill="url(#paint7_linear_4_7661)"/>
<path d="M146.27 55.4964L146.06 54.5891L145.451 55.303L144.503 55.2182L145.011 56.006L144.635 56.8622L145.558 56.633L146.273 57.2458L146.337 56.3168L147.153 55.8409L146.27 55.4964Z" fill="url(#paint8_linear_4_7661)"/>
<path d="M146.27 55.4964L146.06 54.5891L145.451 55.303L144.503 55.2182L145.011 56.006L144.635 56.8622L145.558 56.633L146.273 57.2458L146.337 56.3168L147.153 55.8409L146.27 55.4964Z" fill="url(#paint9_linear_4_7661)"/>
<path d="M141.327 56.4558L141.659 54.5641L139.922 55.4573L138.185 54.5641L138.516 56.4558L137.112 57.7945L139.053 58.0705L139.922 59.7916L140.79 58.0705L142.733 57.7945L141.327 56.4558Z" fill="url(#paint10_linear_4_7661)"/>
<path d="M135.411 55.2866L134.463 55.3713L133.854 54.6564L133.644 55.5648L132.76 55.9081L133.577 56.384L133.64 57.3131L134.356 56.7002L135.278 56.9295L134.903 56.0733L135.411 55.2866Z" fill="url(#paint11_linear_4_7661)"/>
<path d="M135.411 55.2866L134.463 55.3713L133.854 54.6564L133.644 55.5648L132.76 55.9081L133.577 56.384L133.64 57.3131L134.356 56.7002L135.278 56.9295L134.903 56.0733L135.411 55.2866Z" fill="url(#paint12_linear_4_7661)"/>
<path d="M141.327 56.4558L141.659 54.5641L139.922 55.4573L138.185 54.5641L138.516 56.4558L137.112 57.7945L139.053 58.0705L139.922 59.7916L140.79 58.0705L142.733 57.7945L141.327 56.4558Z" fill="url(#paint13_linear_4_7661)"/>
<path d="M146.27 55.4964L146.06 54.5891L145.451 55.303L144.503 55.2182L145.011 56.006L144.635 56.8622L145.558 56.633L146.273 57.2458L146.337 56.3168L147.153 55.8409L146.27 55.4964Z" fill="url(#paint14_linear_4_7661)"/>
<path d="M139.957 28.6862C133.893 28.6851 128.585 31.8481 125.665 36.5791H126.033C128.925 32.0263 134.085 28.9882 139.957 28.9882C145.829 28.9882 150.99 32.0263 153.879 36.5791H154.249C151.329 31.8492 146.021 28.6862 139.957 28.6862Z" fill="url(#paint15_linear_4_7661)"/>
<g filter="url(#filter0_d_4_7661)">
<path d="M139.958 27.6278C133.269 27.6278 127.446 31.2407 124.414 36.579H125.125C128.096 31.5884 133.626 28.2319 139.957 28.233C146.288 28.233 151.817 31.5884 154.787 36.579H155.499C152.467 31.2418 146.644 27.6289 139.958 27.6278Z" fill="url(#paint16_linear_4_7661)" shape-rendering="crispEdges"/>
</g>
<path d="M139.958 23.2478C130.723 23.2478 122.805 28.7481 119.44 36.579H120.112C123.441 29.0892 131.073 23.8519 139.958 23.8519C148.842 23.8519 156.474 29.0903 159.801 36.579H160.473C157.108 28.7481 149.19 23.2478 139.958 23.2478Z" fill="url(#paint17_linear_4_7661)"/>
<path d="M162.998 34.1516C162.589 33.3204 161.323 32.9553 160.824 32.1816C160.324 31.4026 160.534 30.1291 159.949 29.413C159.362 28.6959 158.045 28.6122 157.381 27.9646C156.718 27.3148 156.635 26.0273 155.899 25.4535C155.167 24.8831 153.864 25.0863 153.069 24.5973C152.276 24.1094 151.903 22.8718 151.053 22.472C150.212 22.0743 148.989 22.5578 148.098 22.2525C147.217 21.9504 146.57 20.8269 145.648 20.6204C144.741 20.4205 143.659 21.1583 142.718 21.0562C141.795 20.9551 140.908 20 139.958 20C139.008 20 138.121 20.954 137.196 21.0562C136.256 21.1583 135.175 20.4194 134.268 20.6204C133.346 20.8258 132.698 21.9493 131.818 22.2514C130.925 22.5567 129.704 22.0732 128.862 22.4709C128.011 22.8707 127.638 24.1084 126.847 24.5962C126.05 25.0852 124.748 24.8798 124.015 25.4525C123.282 26.0262 123.196 27.3138 122.534 27.9635C121.869 28.6111 120.552 28.6926 119.966 29.4119C119.382 30.128 119.59 31.4015 119.09 32.1795C118.591 32.9542 117.325 33.3193 116.916 34.1505C116.577 34.8361 116.864 35.7793 116.788 36.579H118.771C122.172 28.4058 130.376 22.6426 139.958 22.6436C149.538 22.6436 157.741 28.4058 161.141 36.579H163.126C163.051 35.7793 163.337 34.8372 162.998 34.1516Z" fill="url(#paint18_linear_4_7661)"/>
<path d="M146.27 55.4964L146.06 54.5891L145.451 55.303L144.503 55.2182L145.011 56.006L144.635 56.8622L145.558 56.633L146.273 57.2458L146.337 56.3168L147.153 55.8409L146.27 55.4964Z" fill="url(#paint19_linear_4_7661)"/>
<path d="M141.327 56.4558L141.659 54.5641L139.922 55.4573L138.185 54.5641L138.516 56.4558L137.112 57.7945L139.053 58.0705L139.922 59.7916L140.79 58.0705L142.733 57.7945L141.327 56.4558Z" fill="url(#paint20_linear_4_7661)"/>
<path d="M135.411 55.2866L134.463 55.3713L133.854 54.6564L133.644 55.5648L132.76 55.9081L133.577 56.384L133.64 57.3131L134.356 56.7002L135.278 56.9295L134.903 56.0733L135.411 55.2866Z" fill="url(#paint21_linear_4_7661)"/>
<path d="M135.411 55.2866L134.463 55.3713L133.854 54.6564L133.644 55.5648L132.76 55.9081L133.577 56.384L133.64 57.3131L134.356 56.7002L135.278 56.9295L134.903 56.0733L135.411 55.2866Z" fill="url(#paint22_linear_4_7661)"/>
<path d="M141.327 56.4558L141.659 54.5641L139.922 55.4573L138.185 54.5641L138.516 56.4558L137.112 57.7945L139.053 58.0705L139.922 59.7916L140.79 58.0705L142.733 57.7945L141.327 56.4558Z" fill="url(#paint23_linear_4_7661)"/>
<path d="M146.27 55.4964L146.06 54.5891L145.451 55.303L144.503 55.2182L145.011 56.006L144.635 56.8622L145.558 56.633L146.273 57.2458L146.337 56.3168L147.153 55.8409L146.27 55.4964Z" fill="url(#paint24_linear_4_7661)"/>
<g filter="url(#filter1_d_4_7661)">
<path d="M153.88 53.421C150.989 57.9738 145.829 61.0119 139.957 61.0119C134.085 61.0119 128.924 57.9738 126.035 53.421H125.665C128.585 58.1509 133.893 61.3139 139.957 61.3139C146.021 61.3139 151.329 58.152 154.249 53.421H153.88Z" fill="url(#paint25_linear_4_7661)" shape-rendering="crispEdges"/>
</g>
<path d="M154.788 53.421C151.817 58.4117 146.288 61.7681 139.957 61.767C133.626 61.767 128.096 58.4117 125.126 53.421H124.414C127.446 58.7583 133.269 62.3712 139.955 62.3723C146.644 62.3723 152.467 58.7594 155.499 53.421H154.788Z" fill="url(#paint26_linear_4_7661)"/>
<path d="M159.801 53.421C156.473 60.9108 148.84 66.1481 139.955 66.1481C131.071 66.1481 123.439 60.9097 120.112 53.421H119.44C122.805 61.252 130.723 66.7523 139.955 66.7523C149.188 66.7523 157.108 61.252 160.473 53.421H159.801Z" fill="url(#paint27_linear_4_7661)"/>
<path d="M163.125 53.421H161.142C157.742 61.5943 149.537 67.3575 139.956 67.3564C130.375 67.3564 122.173 61.5943 118.772 53.421H116.787C116.862 54.2207 116.576 55.1628 116.915 55.8484C117.324 56.6797 118.59 57.0448 119.089 57.8184C119.589 58.5975 119.379 59.871 119.964 60.587C120.551 61.3041 121.868 61.3878 122.533 62.0354C123.195 62.6852 123.278 63.9728 124.014 64.5465C124.746 65.117 126.049 64.9138 126.844 65.4027C127.637 65.8906 128.01 67.1282 128.86 67.5281C129.702 67.9258 130.924 67.4422 131.815 67.7476C132.697 68.0496 133.343 69.1732 134.266 69.3796C135.173 69.5795 136.254 68.8417 137.195 68.9439C138.119 69.0449 139.005 70 139.956 70C140.906 70 141.792 69.046 142.717 68.9439C143.657 68.8417 144.738 69.5806 145.645 69.3796C146.568 69.1742 147.216 68.0507 148.096 67.7486C148.988 67.4433 150.209 67.9268 151.052 67.5292C151.902 67.1293 152.275 65.8917 153.067 65.4038C153.863 64.9148 155.166 65.1202 155.898 64.5476C156.632 63.9739 156.717 62.6863 157.379 62.0365C158.044 61.3889 159.361 61.3074 159.948 60.5881C160.531 59.872 160.323 58.5986 160.823 57.8206C161.322 57.0458 162.588 56.6808 162.997 55.8495C163.336 55.1639 163.049 54.2207 163.125 53.421Z" fill="url(#paint28_linear_4_7661)"/>
<g filter="url(#filter2_d_4_7661)">
<path d="M165.476 37H113.446C112.64 37.0426 112 37.7321 112 38.5758V51.4219C112 52.2932 112.682 53 113.524 53H165.554C166.36 52.9574 167 52.2679 167 51.4242V38.5781C167 37.7068 166.318 37 165.476 37Z" fill="url(#paint29_linear_4_7661)" shape-rendering="crispEdges"/>
</g>
<path d="M135.411 55.2866L134.463 55.3713L133.854 54.6564L133.644 55.5648L132.76 55.9081L133.577 56.384L133.64 57.3131L134.356 56.7002L135.278 56.9295L134.903 56.0733L135.411 55.2866Z" fill="url(#paint30_linear_4_7661)"/>
<path d="M141.327 56.4558L141.659 54.5641L139.922 55.4573L138.185 54.5641L138.516 56.4558L137.112 57.7945L139.053 58.0705L139.922 59.7916L140.79 58.0705L142.733 57.7945L141.327 56.4558Z" fill="url(#paint31_linear_4_7661)"/>
<path d="M146.27 55.4964L146.06 54.5891L145.451 55.303L144.503 55.2182L145.011 56.006L144.635 56.8622L145.558 56.633L146.273 57.2458L146.337 56.3168L147.153 55.8409L146.27 55.4964Z" fill="url(#paint32_linear_4_7661)"/>
<path d="M146.27 55.4964L146.06 54.5891L145.451 55.303L144.503 55.2182L145.011 56.006L144.635 56.8622L145.558 56.633L146.273 57.2458L146.337 56.3168L147.153 55.8409L146.27 55.4964Z" fill="url(#paint33_linear_4_7661)"/>
<path d="M141.327 56.4558L141.659 54.5641L139.922 55.4573L138.185 54.5641L138.516 56.4558L137.112 57.7945L139.053 58.0705L139.922 59.7916L140.79 58.0705L142.733 57.7945L141.327 56.4558Z" fill="url(#paint34_linear_4_7661)"/>
<path d="M135.411 55.2866L134.463 55.3713L133.854 54.6564L133.644 55.5648L132.76 55.9081L133.577 56.384L133.64 57.3131L134.356 56.7002L135.278 56.9295L134.903 56.0733L135.411 55.2866Z" fill="url(#paint35_linear_4_7661)"/>
<path d="M135.411 55.2866L134.463 55.3713L133.854 54.6564L133.644 55.5648L132.76 55.9081L133.577 56.384L133.64 57.3131L134.356 56.7002L135.278 56.9295L134.903 56.0733L135.411 55.2866Z" fill="url(#paint36_linear_4_7661)"/>
<path d="M141.327 56.4558L141.659 54.5641L139.922 55.4573L138.185 54.5641L138.516 56.4558L137.112 57.7945L139.053 58.0705L139.922 59.7916L140.79 58.0705L142.733 57.7945L141.327 56.4558Z" fill="url(#paint37_linear_4_7661)"/>
<path d="M146.27 55.4964L146.06 54.5891L145.451 55.303L144.503 55.2182L145.011 56.006L144.635 56.8622L145.558 56.633L146.273 57.2458L146.337 56.3168L147.153 55.8409L146.27 55.4964Z" fill="url(#paint38_linear_4_7661)"/>
<path d="M139.958 23.2478C130.723 23.2478 122.805 28.7481 119.44 36.579H120.112C123.441 29.0892 131.073 23.8519 139.958 23.8519C148.842 23.8519 156.474 29.0903 159.801 36.579H160.473C157.108 28.7481 149.19 23.2478 139.958 23.2478Z" fill="url(#paint39_linear_4_7661)"/>
<path d="M146.27 55.4964L146.06 54.5891L145.451 55.303L144.503 55.2182L145.011 56.006L144.635 56.8622L145.558 56.633L146.273 57.2458L146.337 56.3168L147.153 55.8409L146.27 55.4964Z" fill="url(#paint40_linear_4_7661)"/>
<path d="M141.327 56.4558L141.659 54.5641L139.922 55.4573L138.185 54.5641L138.516 56.4558L137.112 57.7945L139.053 58.0705L139.922 59.7916L140.79 58.0705L142.733 57.7945L141.327 56.4558Z" fill="url(#paint41_linear_4_7661)"/>
<path d="M135.411 55.2866L134.463 55.3713L133.854 54.6564L133.644 55.5648L132.76 55.9081L133.577 56.384L133.64 57.3131L134.356 56.7002L135.278 56.9295L134.903 56.0733L135.411 55.2866Z" fill="url(#paint42_linear_4_7661)"/>
<path d="M135.411 55.2866L134.463 55.3713L133.854 54.6564L133.644 55.5648L132.76 55.9081L133.577 56.384L133.64 57.3131L134.356 56.7002L135.278 56.9295L134.903 56.0733L135.411 55.2866Z" fill="url(#paint43_linear_4_7661)"/>
<path d="M141.327 56.4558L141.659 54.5641L139.922 55.4573L138.185 54.5641L138.516 56.4558L137.112 57.7945L139.053 58.0705L139.922 59.7916L140.79 58.0705L142.733 57.7945L141.327 56.4558Z" fill="url(#paint44_linear_4_7661)"/>
<path d="M146.27 55.4964L146.06 54.5891L145.451 55.303L144.503 55.2182L145.011 56.006L144.635 56.8622L145.558 56.633L146.273 57.2458L146.337 56.3168L147.153 55.8409L146.27 55.4964Z" fill="url(#paint45_linear_4_7661)"/>
<path d="M146.27 55.4964L146.06 54.5891L145.451 55.303L144.503 55.2182L145.011 56.006L144.635 56.8622L145.558 56.633L146.273 57.2458L146.337 56.3168L147.153 55.8409L146.27 55.4964Z" fill="url(#paint46_linear_4_7661)"/>
<path d="M141.327 56.4558L141.659 54.5641L139.922 55.4573L138.185 54.5641L138.516 56.4558L137.112 57.7945L139.053 58.0705L139.922 59.7916L140.79 58.0705L142.733 57.7945L141.327 56.4558Z" fill="url(#paint47_linear_4_7661)"/>
<path d="M135.411 55.2866L134.463 55.3713L133.854 54.6564L133.644 55.5648L132.76 55.9081L133.577 56.384L133.64 57.3131L134.356 56.7002L135.278 56.9295L134.903 56.0733L135.411 55.2866Z" fill="url(#paint48_linear_4_7661)"/>
<path d="M135.411 55.2866L134.903 56.0733L135.278 56.9295L134.356 56.7002L133.64 57.3131L133.577 56.384L132.76 55.9081L133.644 55.5648L133.854 54.6564L134.463 55.3713L135.411 55.2866Z" fill="url(#paint49_linear_4_7661)"/>
<path d="M141.327 56.4558L142.733 57.7945L140.79 58.0705L139.922 59.7916L139.053 58.0705L137.112 57.7945L138.516 56.4558L138.185 54.5641L139.922 55.4573L141.659 54.5641L141.327 56.4558Z" fill="url(#paint50_linear_4_7661)"/>
<path d="M147.153 55.8409L146.337 56.3168L146.273 57.2458L145.558 56.633L144.635 56.8622L145.011 56.006L144.503 55.2182L145.451 55.303L146.06 54.5891L146.27 55.4964L147.153 55.8409Z" fill="url(#paint51_linear_4_7661)"/>
<path d="M142.733 32.2055L140.79 31.9295L139.922 30.2084L139.053 31.9295L137.112 32.2055L138.516 33.5442L138.185 35.4359L139.922 34.5427L141.659 35.4359L141.327 33.5442L142.733 32.2055Z" fill="url(#paint52_linear_4_7661)"/>
<path d="M147.153 34.1592L146.337 33.6833L146.273 32.7543L145.558 33.3671L144.635 33.1378L145.011 33.9941L144.503 34.7818L145.451 34.6971L146.06 35.411L146.27 34.5037L147.153 34.1592Z" fill="url(#paint53_linear_4_7661)"/>
<path d="M134.903 33.9267L135.278 33.0705L134.356 33.2997L133.64 32.6869L133.577 33.6159L132.76 34.0918L133.644 34.4352L133.854 35.3436L134.463 34.6286L135.411 34.7134L134.903 33.9267Z" fill="url(#paint54_linear_4_7661)"/>
<path d="M127.165 43.1H128.292L126.171 48H125.051L122.937 43.1H124.162L125.653 46.6L127.165 43.1ZM129.828 47.09H132.495V48H128.701V43.1H132.404V44.01H129.828V45.074H132.103V45.956H129.828V47.09ZM137.737 48H136.519L135.574 46.635H135.518H134.531V48H133.397V43.1H135.518C136.827 43.1 137.646 43.779 137.646 44.878C137.646 45.613 137.275 46.152 136.638 46.425L137.737 48ZM136.498 44.878C136.498 44.339 136.148 44.024 135.455 44.024H134.531V45.732H135.455C136.148 45.732 136.498 45.41 136.498 44.878ZM138.545 48V43.1H139.679V48H138.545ZM144.545 44.01H141.976V45.305H144.244V46.215H141.976V48H140.842V43.1H144.545V44.01ZM145.312 48V43.1H146.446V48H145.312ZM148.736 47.09H151.403V48H147.609V43.1H151.312V44.01H148.736V45.074H151.011V45.956H148.736V47.09ZM152.306 48V43.1H154.532C156.135 43.1 157.234 44.066 157.234 45.55C157.234 47.034 156.135 48 154.532 48H152.306ZM153.44 47.069H154.476C155.449 47.069 156.086 46.488 156.086 45.55C156.086 44.612 155.449 44.031 154.476 44.031H153.44V47.069Z" fill="white"/>
<defs>
<filter id="filter0_d_4_7661" x="50.4141" y="-45.3722" width="179.085" height="156.951" filterUnits="userSpaceOnUse" color-interpolation-filters="sRGB">
<feFlood flood-opacity="0" result="BackgroundImageFix"/>
<feColorMatrix in="SourceAlpha" type="matrix" values="0 0 0 0 0 0 0 0 0 0 0 0 0 0 0 0 0 0 127 0" result="hardAlpha"/>
<feMorphology radius="10" operator="dilate" in="SourceAlpha" result="effect1_dropShadow_4_7661"/>
<feOffset dy="1"/>
<feGaussianBlur stdDeviation="32"/>
<feComposite in2="hardAlpha" operator="out"/>
<feColorMatrix type="matrix" values="0 0 0 0 0 0 0 0 0 0 0 0 0 0 0 0 0 0 0.12 0"/>
<feBlend mode="normal" in2="BackgroundImageFix" result="effect1_dropShadow_4_7661"/>
<feBlend mode="normal" in="SourceGraphic" in2="effect1_dropShadow_4_7661" result="shape"/>
</filter>
<filter id="filter1_d_4_7661" x="51.6646" y="-19.579" width="176.584" height="155.893" filterUnits="userSpaceOnUse" color-interpolation-filters="sRGB">
<feFlood flood-opacity="0" result="BackgroundImageFix"/>
<feColorMatrix in="SourceAlpha" type="matrix" values="0 0 0 0 0 0 0 0 0 0 0 0 0 0 0 0 0 0 127 0" result="hardAlpha"/>
<feMorphology radius="10" operator="dilate" in="SourceAlpha" result="effect1_dropShadow_4_7661"/>
<feOffset dy="1"/>
<feGaussianBlur stdDeviation="32"/>
<feComposite in2="hardAlpha" operator="out"/>
<feColorMatrix type="matrix" values="0 0 0 0 0 0 0 0 0 0 0 0 0 0 0 0 0 0 0.12 0"/>
<feBlend mode="normal" in2="BackgroundImageFix" result="effect1_dropShadow_4_7661"/>
<feBlend mode="normal" in="SourceGraphic" in2="effect1_dropShadow_4_7661" result="shape"/>
</filter>
<filter id="filter2_d_4_7661" x="-18" y="-43" width="315" height="276" filterUnits="userSpaceOnUse" color-interpolation-filters="sRGB">
<feFlood flood-opacity="0" result="BackgroundImageFix"/>
<feColorMatrix in="SourceAlpha" type="matrix" values="0 0 0 0 0 0 0 0 0 0 0 0 0 0 0 0 0 0 127 0" result="hardAlpha"/>
<feOffset dy="50"/>
<feGaussianBlur stdDeviation="65"/>
<feComposite in2="hardAlpha" operator="out"/>
<feColorMatrix type="matrix" values="0 0 0 0 0 0 0 0 0 0 0 0 0 0 0 0 0 0 0.15 0"/>
<feBlend mode="normal" in2="BackgroundImageFix" result="effect1_dropShadow_4_7661"/>
<feBlend mode="normal" in="SourceGraphic" in2="effect1_dropShadow_4_7661" result="shape"/>
</filter>
<linearGradient id="paint0_linear_4_7661" x1="134.085" y1="54.6564" x2="134.085" y2="57.3131" gradientUnits="userSpaceOnUse">
<stop stop-color="#FFDE99"/>
<stop offset="1" stop-color="#D9A841" stop-opacity="0.28"/>
</linearGradient>
<linearGradient id="paint1_linear_4_7661" x1="139.922" y1="54.5641" x2="139.922" y2="59.7916" gradientUnits="userSpaceOnUse">
<stop stop-color="#FFDE99"/>
<stop offset="1" stop-color="#D9A841" stop-opacity="0.28"/>
</linearGradient>
<linearGradient id="paint2_linear_4_7661" x1="145.828" y1="54.5891" x2="145.828" y2="57.2458" gradientUnits="userSpaceOnUse">
<stop stop-color="#FFDE99"/>
<stop offset="1" stop-color="#D9A841" stop-opacity="0.28"/>
</linearGradient>
<linearGradient id="paint3_linear_4_7661" x1="145.828" y1="54.5891" x2="145.828" y2="57.2458" gradientUnits="userSpaceOnUse">
<stop stop-color="#FFDE99"/>
<stop offset="1" stop-color="#D9A841" stop-opacity="0.28"/>
</linearGradient>
<linearGradient id="paint4_linear_4_7661" x1="139.922" y1="54.5641" x2="139.922" y2="59.7916" gradientUnits="userSpaceOnUse">
<stop stop-color="#FFDE99"/>
<stop offset="1" stop-color="#D9A841" stop-opacity="0.28"/>
</linearGradient>
<linearGradient id="paint5_linear_4_7661" x1="134.085" y1="54.6564" x2="134.085" y2="57.3131" gradientUnits="userSpaceOnUse">
<stop stop-color="#FFDE99"/>
<stop offset="1" stop-color="#D9A841" stop-opacity="0.28"/>
</linearGradient>
<linearGradient id="paint6_linear_4_7661" x1="134.085" y1="54.6564" x2="134.085" y2="57.3131" gradientUnits="userSpaceOnUse">
<stop stop-color="#FFDE99"/>
<stop offset="1" stop-color="#D9A841" stop-opacity="0.28"/>
</linearGradient>
<linearGradient id="paint7_linear_4_7661" x1="139.922" y1="54.5641" x2="139.922" y2="59.7916" gradientUnits="userSpaceOnUse">
<stop stop-color="#FFDE99"/>
<stop offset="1" stop-color="#D9A841" stop-opacity="0.28"/>
</linearGradient>
<linearGradient id="paint8_linear_4_7661" x1="145.828" y1="54.5891" x2="145.828" y2="57.2458" gradientUnits="userSpaceOnUse">
<stop stop-color="#FFDE99"/>
<stop offset="1" stop-color="#D9A841" stop-opacity="0.28"/>
</linearGradient>
<linearGradient id="paint9_linear_4_7661" x1="145.828" y1="54.5891" x2="145.828" y2="57.2458" gradientUnits="userSpaceOnUse">
<stop stop-color="#FFDE99"/>
<stop offset="1" stop-color="#D9A841" stop-opacity="0.28"/>
</linearGradient>
<linearGradient id="paint10_linear_4_7661" x1="139.922" y1="54.5641" x2="139.922" y2="59.7916" gradientUnits="userSpaceOnUse">
<stop stop-color="#FFDE99"/>
<stop offset="1" stop-color="#D9A841" stop-opacity="0.28"/>
</linearGradient>
<linearGradient id="paint11_linear_4_7661" x1="134.085" y1="54.6564" x2="134.085" y2="57.3131" gradientUnits="userSpaceOnUse">
<stop stop-color="#FFDE99"/>
<stop offset="1" stop-color="#D9A841" stop-opacity="0.28"/>
</linearGradient>
<linearGradient id="paint12_linear_4_7661" x1="134.085" y1="54.6564" x2="134.085" y2="57.3131" gradientUnits="userSpaceOnUse">
<stop stop-color="#FFDE99"/>
<stop offset="1" stop-color="#D9A841" stop-opacity="0.28"/>
</linearGradient>
<linearGradient id="paint13_linear_4_7661" x1="139.922" y1="54.5641" x2="139.922" y2="59.7916" gradientUnits="userSpaceOnUse">
<stop stop-color="#FFDE99"/>
<stop offset="1" stop-color="#D9A841" stop-opacity="0.28"/>
</linearGradient>
<linearGradient id="paint14_linear_4_7661" x1="145.828" y1="54.5891" x2="145.828" y2="57.2458" gradientUnits="userSpaceOnUse">
<stop stop-color="#FFDE99"/>
<stop offset="1" stop-color="#D9A841" stop-opacity="0.28"/>
</linearGradient>
<linearGradient id="paint15_linear_4_7661" x1="139.957" y1="28.6862" x2="139.957" y2="36.5791" gradientUnits="userSpaceOnUse">
<stop stop-color="#FFDE99"/>
<stop offset="1" stop-color="#D9A841" stop-opacity="0.28"/>
</linearGradient>
<linearGradient id="paint16_linear_4_7661" x1="139.957" y1="27.6278" x2="139.957" y2="36.579" gradientUnits="userSpaceOnUse">
<stop stop-color="#FFDE99"/>
<stop offset="1" stop-color="#D9A841" stop-opacity="0.28"/>
</linearGradient>
<linearGradient id="paint17_linear_4_7661" x1="139.957" y1="23.2478" x2="139.957" y2="36.579" gradientUnits="userSpaceOnUse">
<stop stop-color="#FFDE99"/>
<stop offset="1" stop-color="#D9A841" stop-opacity="0.28"/>
</linearGradient>
<linearGradient id="paint18_linear_4_7661" x1="139.957" y1="20" x2="139.957" y2="36.579" gradientUnits="userSpaceOnUse">
<stop stop-color="#FFDE99"/>
<stop offset="1" stop-color="#D9A841" stop-opacity="0.28"/>
</linearGradient>
<linearGradient id="paint19_linear_4_7661" x1="145.828" y1="54.5891" x2="145.828" y2="57.2458" gradientUnits="userSpaceOnUse">
<stop stop-color="#FFDE99"/>
<stop offset="1" stop-color="#D9A841" stop-opacity="0.28"/>
</linearGradient>
<linearGradient id="paint20_linear_4_7661" x1="139.922" y1="54.5641" x2="139.922" y2="59.7916" gradientUnits="userSpaceOnUse">
<stop stop-color="#FFDE99"/>
<stop offset="1" stop-color="#D9A841" stop-opacity="0.28"/>
</linearGradient>
<linearGradient id="paint21_linear_4_7661" x1="134.085" y1="54.6564" x2="134.085" y2="57.3131" gradientUnits="userSpaceOnUse">
<stop stop-color="#FFDE99"/>
<stop offset="1" stop-color="#D9A841" stop-opacity="0.28"/>
</linearGradient>
<linearGradient id="paint22_linear_4_7661" x1="134.085" y1="54.6564" x2="134.085" y2="57.3131" gradientUnits="userSpaceOnUse">
<stop stop-color="#FFDE99"/>
<stop offset="1" stop-color="#D9A841" stop-opacity="0.28"/>
</linearGradient>
<linearGradient id="paint23_linear_4_7661" x1="139.922" y1="54.5641" x2="139.922" y2="59.7916" gradientUnits="userSpaceOnUse">
<stop stop-color="#FFDE99"/>
<stop offset="1" stop-color="#D9A841" stop-opacity="0.28"/>
</linearGradient>
<linearGradient id="paint24_linear_4_7661" x1="145.828" y1="54.5891" x2="145.828" y2="57.2458" gradientUnits="userSpaceOnUse">
<stop stop-color="#FFDE99"/>
<stop offset="1" stop-color="#D9A841" stop-opacity="0.28"/>
</linearGradient>
<linearGradient id="paint25_linear_4_7661" x1="139.957" y1="53.421" x2="139.957" y2="61.3139" gradientUnits="userSpaceOnUse">
<stop stop-color="#FFDE99"/>
<stop offset="1" stop-color="#D9A841" stop-opacity="0.28"/>
</linearGradient>
<linearGradient id="paint26_linear_4_7661" x1="139.957" y1="53.421" x2="139.957" y2="62.3723" gradientUnits="userSpaceOnUse">
<stop stop-color="#FFDE99"/>
<stop offset="1" stop-color="#D9A841" stop-opacity="0.28"/>
</linearGradient>
<linearGradient id="paint27_linear_4_7661" x1="139.957" y1="53.421" x2="139.957" y2="66.7523" gradientUnits="userSpaceOnUse">
<stop stop-color="#FFDE99"/>
<stop offset="1" stop-color="#D9A841" stop-opacity="0.28"/>
</linearGradient>
<linearGradient id="paint28_linear_4_7661" x1="139.956" y1="53.421" x2="139.956" y2="70" gradientUnits="userSpaceOnUse">
<stop stop-color="#FFDE99"/>
<stop offset="1" stop-color="#D9A841" stop-opacity="0.28"/>
</linearGradient>
<linearGradient id="paint29_linear_4_7661" x1="112" y1="42" x2="234" y2="40.5" gradientUnits="userSpaceOnUse">
<stop stop-color="#CC9725"/>
<stop offset="1" stop-color="#D9A841" stop-opacity="0.28"/>
</linearGradient>
<linearGradient id="paint30_linear_4_7661" x1="134.085" y1="54.6564" x2="134.085" y2="57.3131" gradientUnits="userSpaceOnUse">
<stop stop-color="#FFDE99"/>
<stop offset="1" stop-color="#D9A841" stop-opacity="0.28"/>
</linearGradient>
<linearGradient id="paint31_linear_4_7661" x1="139.922" y1="54.5641" x2="139.922" y2="59.7916" gradientUnits="userSpaceOnUse">
<stop stop-color="#FFDE99"/>
<stop offset="1" stop-color="#D9A841" stop-opacity="0.28"/>
</linearGradient>
<linearGradient id="paint32_linear_4_7661" x1="145.828" y1="54.5891" x2="145.828" y2="57.2458" gradientUnits="userSpaceOnUse">
<stop stop-color="#FFDE99"/>
<stop offset="1" stop-color="#D9A841" stop-opacity="0.28"/>
</linearGradient>
<linearGradient id="paint33_linear_4_7661" x1="145.828" y1="54.5891" x2="145.828" y2="57.2458" gradientUnits="userSpaceOnUse">
<stop stop-color="#FFDE99"/>
<stop offset="1" stop-color="#D9A841" stop-opacity="0.28"/>
</linearGradient>
<linearGradient id="paint34_linear_4_7661" x1="139.922" y1="54.5641" x2="139.922" y2="59.7916" gradientUnits="userSpaceOnUse">
<stop stop-color="#FFDE99"/>
<stop offset="1" stop-color="#D9A841" stop-opacity="0.28"/>
</linearGradient>
<linearGradient id="paint35_linear_4_7661" x1="134.085" y1="54.6564" x2="134.085" y2="57.3131" gradientUnits="userSpaceOnUse">
<stop stop-color="#FFDE99"/>
<stop offset="1" stop-color="#D9A841" stop-opacity="0.28"/>
</linearGradient>
<linearGradient id="paint36_linear_4_7661" x1="134.085" y1="54.6564" x2="134.085" y2="57.3131" gradientUnits="userSpaceOnUse">
<stop stop-color="#FFDE99"/>
<stop offset="1" stop-color="#D9A841" stop-opacity="0.28"/>
</linearGradient>
<linearGradient id="paint37_linear_4_7661" x1="139.922" y1="54.5641" x2="139.922" y2="59.7916" gradientUnits="userSpaceOnUse">
<stop stop-color="#FFDE99"/>
<stop offset="1" stop-color="#D9A841" stop-opacity="0.28"/>
</linearGradient>
<linearGradient id="paint38_linear_4_7661" x1="145.828" y1="54.5891" x2="145.828" y2="57.2458" gradientUnits="userSpaceOnUse">
<stop stop-color="#FFDE99"/>
<stop offset="1" stop-color="#D9A841" stop-opacity="0.28"/>
</linearGradient>
<linearGradient id="paint39_linear_4_7661" x1="139.957" y1="23.2478" x2="139.957" y2="36.579" gradientUnits="userSpaceOnUse">
<stop stop-color="#FFDE99"/>
<stop offset="1" stop-color="#D9A841" stop-opacity="0.28"/>
</linearGradient>
<linearGradient id="paint40_linear_4_7661" x1="145.828" y1="54.5891" x2="145.828" y2="57.2458" gradientUnits="userSpaceOnUse">
<stop stop-color="#FFDE99"/>
<stop offset="1" stop-color="#D9A841" stop-opacity="0.28"/>
</linearGradient>
<linearGradient id="paint41_linear_4_7661" x1="139.922" y1="54.5641" x2="139.922" y2="59.7916" gradientUnits="userSpaceOnUse">
<stop stop-color="#FFDE99"/>
<stop offset="1" stop-color="#D9A841" stop-opacity="0.28"/>
</linearGradient>
<linearGradient id="paint42_linear_4_7661" x1="134.085" y1="54.6564" x2="134.085" y2="57.3131" gradientUnits="userSpaceOnUse">
<stop stop-color="#FFDE99"/>
<stop offset="1" stop-color="#D9A841" stop-opacity="0.28"/>
</linearGradient>
<linearGradient id="paint43_linear_4_7661" x1="134.085" y1="54.6564" x2="134.085" y2="57.3131" gradientUnits="userSpaceOnUse">
<stop stop-color="#FFDE99"/>
<stop offset="1" stop-color="#D9A841" stop-opacity="0.28"/>
</linearGradient>
<linearGradient id="paint44_linear_4_7661" x1="139.922" y1="54.5641" x2="139.922" y2="59.7916" gradientUnits="userSpaceOnUse">
<stop stop-color="#FFDE99"/>
<stop offset="1" stop-color="#D9A841" stop-opacity="0.28"/>
</linearGradient>
<linearGradient id="paint45_linear_4_7661" x1="145.828" y1="54.5891" x2="145.828" y2="57.2458" gradientUnits="userSpaceOnUse">
<stop stop-color="#FFDE99"/>
<stop offset="1" stop-color="#D9A841" stop-opacity="0.28"/>
</linearGradient>
<linearGradient id="paint46_linear_4_7661" x1="145.828" y1="54.5891" x2="145.828" y2="57.2458" gradientUnits="userSpaceOnUse">
<stop stop-color="#FFDE99"/>
<stop offset="1" stop-color="#D9A841" stop-opacity="0.28"/>
</linearGradient>
<linearGradient id="paint47_linear_4_7661" x1="139.922" y1="54.5641" x2="139.922" y2="59.7916" gradientUnits="userSpaceOnUse">
<stop stop-color="#FFDE99"/>
<stop offset="1" stop-color="#D9A841" stop-opacity="0.28"/>
</linearGradient>
<linearGradient id="paint48_linear_4_7661" x1="134.085" y1="54.6564" x2="134.085" y2="57.3131" gradientUnits="userSpaceOnUse">
<stop stop-color="#FFDE99"/>
<stop offset="1" stop-color="#D9A841" stop-opacity="0.28"/>
</linearGradient>
<linearGradient id="paint49_linear_4_7661" x1="134.085" y1="54.6564" x2="134.085" y2="57.3131" gradientUnits="userSpaceOnUse">
<stop stop-color="#FFDE99"/>
<stop offset="1" stop-color="#D9A841" stop-opacity="0.28"/>
</linearGradient>
<linearGradient id="paint50_linear_4_7661" x1="139.922" y1="54.5641" x2="139.922" y2="59.7916" gradientUnits="userSpaceOnUse">
<stop stop-color="#FFDE99"/>
<stop offset="1" stop-color="#D9A841" stop-opacity="0.28"/>
</linearGradient>
<linearGradient id="paint51_linear_4_7661" x1="145.828" y1="54.5891" x2="145.828" y2="57.2458" gradientUnits="userSpaceOnUse">
<stop stop-color="#FFDE99"/>
<stop offset="1" stop-color="#D9A841" stop-opacity="0.28"/>
</linearGradient>
<linearGradient id="paint52_linear_4_7661" x1="139.922" y1="30.2084" x2="139.922" y2="35.4359" gradientUnits="userSpaceOnUse">
<stop stop-color="#FFDE99"/>
<stop offset="1" stop-color="#D9A841" stop-opacity="0.28"/>
</linearGradient>
<linearGradient id="paint53_linear_4_7661" x1="145.828" y1="32.7543" x2="145.828" y2="35.411" gradientUnits="userSpaceOnUse">
<stop stop-color="#FFDE99"/>
<stop offset="1" stop-color="#D9A841" stop-opacity="0.28"/>
</linearGradient>
<linearGradient id="paint54_linear_4_7661" x1="134.085" y1="32.6869" x2="134.085" y2="35.3436" gradientUnits="userSpaceOnUse">
<stop stop-color="#FFDE99"/>
<stop offset="1" stop-color="#D9A841" stop-opacity="0.28"/>
</linearGradient>
</defs>
</svg>
